<svg width="32" height="32" viewBox="0 0 32 32" fill="none" xmlns="http://www.w3.org/2000/svg">
<path fill-rule="evenodd" clip-rule="evenodd" d="M15.8984 9.53992C16.3955 9.53992 16.7984 9.94286 16.7984 10.4399V13.7699C16.7984 14.267 16.3955 14.6699 15.8984 14.6699C15.4014 14.6699 14.9984 14.267 14.9984 13.7699V10.4399C14.9984 9.94286 15.4014 9.53992 15.8984 9.53992Z" fill="#2A2C39"/>
<path fill-rule="evenodd" clip-rule="evenodd" d="M8.35736 12.66C8.35736 8.48292 11.7403 5.09998 15.9174 5.09998C20.0749 5.09998 23.476 8.50286 23.4874 12.6575L23.4874 12.66L23.4874 14.76C23.4874 14.9886 23.5384 15.3296 23.6389 15.6951C23.7395 16.0611 23.8698 16.3792 23.9879 16.575L23.9894 16.5775L25.2594 18.6975C26.283 20.4081 25.4711 22.6307 23.572 23.2638C18.6076 24.9151 13.2377 24.9153 8.27329 23.264C7.31796 22.9455 6.60114 22.2757 6.28063 21.4081C5.96026 20.5409 6.06836 19.5656 6.58406 18.6995L6.5853 18.6975L7.8553 16.5775L7.85679 16.575C7.9756 16.3781 8.10575 16.0618 8.206 15.6982C8.3061 15.3352 8.35736 14.9941 8.35736 14.76V12.66ZM15.9174 6.89998C12.7344 6.89998 10.1574 9.47703 10.1574 12.66V14.76C10.1574 15.2058 10.0686 15.7147 9.94123 16.1767C9.81412 16.6377 9.62954 17.1208 9.39872 17.5037C9.39845 17.5041 9.39819 17.5045 9.39793 17.505L8.13066 19.6204C8.13047 19.6207 8.13028 19.6211 8.13009 19.6214C7.86635 20.0649 7.85454 20.4743 7.9691 20.7843C8.08359 21.0943 8.3573 21.3946 8.84197 21.5562C13.4372 23.0846 18.4075 23.0846 23.0028 21.5562C23.8036 21.2892 24.1515 20.3514 23.7151 19.6221L22.4468 17.505C22.4465 17.5045 22.4462 17.504 22.4459 17.5035C22.2145 17.1195 22.03 16.6333 21.9033 16.1723C21.7763 15.7103 21.6874 15.2013 21.6874 14.76V12.6614C21.6782 9.49653 19.0795 6.89998 15.9174 6.89998Z" fill="#2A2C39"/>
<path fill-rule="evenodd" clip-rule="evenodd" d="M13.4684 22.8198C13.4684 23.4779 13.744 24.0926 14.1848 24.5334C14.6255 24.9742 15.2402 25.2498 15.8983 25.2498C17.2313 25.2498 18.3283 24.1527 18.3283 22.8198H20.1283C20.1283 25.1469 18.2254 27.0498 15.8983 27.0498C14.7364 27.0498 13.6711 26.5654 12.912 25.8062C12.1528 25.047 11.6684 23.9817 11.6684 22.8198H13.4684Z" fill="#2A2C39"/>
</svg>
