<svg width="24" height="24" viewBox="0 0 24 24" fill="none" xmlns="http://www.w3.org/2000/svg">
<rect width="24" height="24" rx="8" fill="#E50D32"/>
<path d="M12 18.9989C18.4954 18.9989 19 14.1409 19 12.6518C19 9.21161 16.5818 7.81925 15.3091 7.56089C15.1917 7.53601 15.0697 7.54482 14.9572 7.58629C14.8446 7.62775 14.7461 7.70019 14.6729 7.79525C14.5997 7.89031 14.5549 8.00412 14.5436 8.12355C14.5323 8.24298 14.555 8.36317 14.6091 8.47025C14.8805 8.9318 14.9858 9.4723 14.9075 10.002C14.8522 10.0917 14.6345 10.1019 14.5429 10.1019C14.0415 10.1019 13.8143 9.4598 13.7245 9.07734C13.4369 7.86061 13.806 6.39698 14.1916 6.2048C14.327 6.13966 14.435 6.02874 14.4964 5.89165C14.5579 5.75457 14.5688 5.60016 14.5274 5.45577C14.4859 5.31138 14.3947 5.1863 14.2699 5.10269C14.1451 5.01907 13.9948 4.9823 13.8455 4.99889C13.6609 5.01734 9.92036 5.43162 8.00555 8.50652C7.9894 8.27615 8.028 8.04522 8.11818 7.83261C8.1818 7.70665 8.20174 7.56311 8.17487 7.42458C8.148 7.28604 8.07585 7.16037 7.96975 7.06732C7.86366 6.97427 7.72965 6.91912 7.58879 6.91055C7.44794 6.90198 7.30823 6.94048 7.19164 7.01998C7.1 7.0798 5 8.52434 5 12.0135C5 16.5807 7.41818 18.9989 12 18.9989ZM6.83718 9.42161C6.93139 9.87017 7.06011 10.3108 7.22218 10.7395C7.26917 10.8654 7.35477 10.9731 7.46672 11.0473C7.57868 11.1215 7.71124 11.1584 7.84544 11.1527C7.97964 11.147 8.10858 11.0989 8.21381 11.0155C8.31904 10.932 8.39516 10.8174 8.43127 10.688C8.7204 9.71589 9.24929 8.8321 9.9693 8.11787C10.6893 7.40364 11.5773 6.8819 12.5517 6.60061C12.3033 7.50452 12.2815 8.45571 12.4881 9.37007C12.7885 10.6428 13.5387 11.3746 14.5448 11.3746C14.827 11.3986 15.1104 11.3459 15.3651 11.2221C15.6198 11.0983 15.8364 10.9081 15.9919 10.6714C16.2125 10.2695 16.2884 9.80406 16.207 9.35289C16.7157 9.73211 17.1213 10.2327 17.3869 10.8089C17.6524 11.3852 17.7694 12.0187 17.7273 12.6518C17.7273 14.5443 16.9834 17.7262 12 17.7262C8.14618 17.7262 6.27273 15.8572 6.27273 12.0135C6.25545 11.1173 6.44879 10.2295 6.83718 9.42161Z" fill="white"/>
</svg>
